<svg id="logo_incampo" xmlns="http://www.w3.org/2000/svg" xmlns:xlink="http://www.w3.org/1999/xlink" width="156" height="42.671" viewBox="0 0 156 42.671">
  <defs>
    <style>
      .cls-1 {
        fill: url(#linear-gradient);
      }

      .cls-2 {
        fill: #64bb9a;
      }

      .cls-3 {
        fill: #37348b;
      }
    </style>
    <linearGradient id="linear-gradient" x1="0.054" y1="0.5" x2="0.944" y2="0.5" gradientUnits="objectBoundingBox">
      <stop offset="0" stop-color="#37348b"/>
      <stop offset="0.27" stop-color="#3c63ad"/>
      <stop offset="0.63" stop-color="#47a9df"/>
      <stop offset="1" stop-color="#64bb9a"/>
    </linearGradient>
  </defs>
  <path id="Tracciato_41" data-name="Tracciato 41" class="cls-1" d="M1433.9,77.991a2.929,2.929,0,0,0-.849-2.049,3.143,3.143,0,0,0-1.412-.767c-.039-.041-.076-.083-.114-.125a13.473,13.473,0,0,1-1.232-2.3c-.983-2.4-1.664-4.912-2.474-7.378a17.013,17.013,0,0,0-.677-1.744,3.1,3.1,0,0,0-2.76-1.805,3.009,3.009,0,0,0-2.119.884,4.647,4.647,0,0,0-.566.728,6.709,6.709,0,0,0-.35.6c-.961,1.8-1.781,3.674-2.645,5.519-1.227,2.624-2.462,5.246-3.77,7.83-.348.687-.7,1.378-1.057,2.064.1-1.026.205-2.05.314-3.075.193-1.816.4-3.632.54-5.453a22.769,22.769,0,0,0,.089-4.053,6.115,6.115,0,0,0-.653-2.523,3.369,3.369,0,0,0-3.77-1.612c-1.632.438-2.708,1.936-3.587,3.269a44.944,44.944,0,0,0-2.492,4.451c-.934,1.842-1.818,3.709-2.694,5.578.006-.147.012-.294.018-.44.089-2.2.182-4.4.231-6.6a38.315,38.315,0,0,0-.068-4.739,6.018,6.018,0,0,0-.63-2.489,3.128,3.128,0,0,0-2.662-1.534,3.333,3.333,0,0,0-2.282.974,7.952,7.952,0,0,0-1.216,1.528c-.388.569-.741,1.161-1.086,1.757-.979,1.689-1.887,3.419-2.784,5.152-1.046,2.02-2.069,4.052-3.09,6.085-.934,1.859-1.863,3.72-2.811,5.571-.611,1.191-1.206,2.4-1.913,3.543l-.028.044a2.26,2.26,0,0,0-.139.19,2.185,2.185,0,0,0-.519.985,2.96,2.96,0,0,0,.292,2.233,2.924,2.924,0,0,0,1.732,1.332,2.849,2.849,0,0,0,2.233-.292,4.075,4.075,0,0,0,1.223-1.248c.1-.145.2-.3.289-.448.3-.5.576-1.012.85-1.525.857-1.608,1.674-3.239,2.493-4.867,1.016-2.019,2.026-4.04,3.049-6.056q.569-1.122,1.145-2.24c-.007.17-.013.341-.02.511-.078,2.009-.166,4.019-.234,6.029-.057,1.684-.112,3.372-.087,5.057.008.569.023,1.138.079,1.7a5.8,5.8,0,0,0,.585,2.391,3.1,3.1,0,0,0,4.283,1.12,5.273,5.273,0,0,0,1.64-1.8,36.585,36.585,0,0,0,1.925-3.68c.856-1.777,1.682-3.568,2.519-5.354.627-1.337,1.258-2.671,1.907-4q-.1.906-.194,1.811c-.2,1.909-.405,3.82-.511,5.737a16.139,16.139,0,0,0,.237,4.749,4.081,4.081,0,0,0,1.791,2.558,3.328,3.328,0,0,0,2.191.413,3.62,3.62,0,0,0,1.484-.5,6.452,6.452,0,0,0,1.6-1.424,23.685,23.685,0,0,0,1.661-2.3c1.019-1.6,1.913-3.285,2.779-4.973.988-1.925,1.93-3.874,2.856-5.83q.727-1.534,1.443-3.073.588,1.679,1.289,3.315a13.559,13.559,0,0,0,1.5,2.783,11.187,11.187,0,0,0,.889,1.106,7.334,7.334,0,0,0,1.036.847,4.73,4.73,0,0,0,1.142.539,4.031,4.031,0,0,0,1.256.2,2.9,2.9,0,0,0,2.9-2.9Z" transform="translate(-1316.84 -58.126)"/>
  <path id="Tracciato_42" data-name="Tracciato 42" class="cls-2" d="M31.133,194.658a3.6,3.6,0,0,0-2.311-.578q-2.177,0-2.651.884a3.137,3.137,0,0,0-.289.9,9.922,9.922,0,0,0-.051,1.172v11.93a9.869,9.869,0,0,0,.051,1.19,3.145,3.145,0,0,0,.289.884q.475.917,2.617.917c1.427,0,2.322-.294,2.617-.883a2.721,2.721,0,0,0,.323-.9A9.793,9.793,0,0,0,31.778,209v-11.9q0-.645-.034-.985A1.874,1.874,0,0,0,31.133,194.658Z" transform="translate(-25.651 -185.511)"/>
  <path id="Tracciato_43" data-name="Tracciato 43" class="cls-2" d="M215.209,193.38a7.19,7.19,0,0,1,5.659,2.6,9.329,9.329,0,0,1,2.26,6.339V208.3a9.794,9.794,0,0,1-.051,1.173,2.756,2.756,0,0,1-.289.867q-.476.918-2.651.918-2.414,0-2.788-1.257a5.543,5.543,0,0,1-.2-1.734v-5.982a2.73,2.73,0,0,0-2.94-2.957,2.976,2.976,0,0,0-2.176.816,2.862,2.862,0,0,0-.832,2.141V208.3a10,10,0,0,1-.051,1.173,2.435,2.435,0,0,1-.323.867q-.443.918-2.617.918c-1.45,0-2.3-.306-2.617-.918a3.115,3.115,0,0,1-.289-.9,9.791,9.791,0,0,1-.051-1.173V196.236a9.429,9.429,0,0,1,.051-1.139,2.407,2.407,0,0,1,.323-.867q.476-.849,2.617-.85c1.427,0,2.232.261,2.549.782a2.706,2.706,0,0,1,.34,1.394,3.472,3.472,0,0,1,.612-.68,6.037,6.037,0,0,1,.918-.714,4.454,4.454,0,0,1,2.549-.782Z" transform="translate(-196.405 -184.844)"/>
  <path id="Tracciato_44" data-name="Tracciato 44" class="cls-3" d="M627.247,198.33a2.767,2.767,0,0,0,.952,2.243,3.1,3.1,0,0,0,2.023.8,3.52,3.52,0,0,0,2.005-.629,2.992,2.992,0,0,1,1.512-.629q1.019,0,2.481,1.8a2.985,2.985,0,0,1,.782,1.767q0,1.293-1.869,2.414a8.076,8.076,0,0,1-4.759,1.359,9.776,9.776,0,0,1-6.083-2.277,8.088,8.088,0,0,1-2.277-2.906,9.057,9.057,0,0,1-.883-4.011,8.84,8.84,0,0,1,.883-3.976,8.163,8.163,0,0,1,2.277-2.872,9.5,9.5,0,0,1,6.016-2.243,8.942,8.942,0,0,1,2.515.356,8.446,8.446,0,0,1,1.8.7l.544.34q.612.408.952.646a1.944,1.944,0,0,1,.884,1.547,3.666,3.666,0,0,1-.714,1.954q-1.224,1.869-2.346,1.869a3.936,3.936,0,0,1-1.835-.748,2.454,2.454,0,0,0-1.75-.578,3.269,3.269,0,0,0-2.124.816A2.772,2.772,0,0,0,627.247,198.33Z" transform="translate(-592.197 -180.838)"/>
  <path id="Tracciato_45" data-name="Tracciato 45" class="cls-3" d="M2465.8,216.162V196.313a9.314,9.314,0,0,1,.051-1.155,2.738,2.738,0,0,1,.289-.85q.475-.918,2.277-.918a4.456,4.456,0,0,1,2.43.459,1.835,1.835,0,0,1,.731,1.342,4.692,4.692,0,0,1,4.061-1.767,7.237,7.237,0,0,1,5.252,2.617,8.719,8.719,0,0,1,.016,12.168,7.2,7.2,0,0,1-5.251,2.617,4.888,4.888,0,0,1-4.045-1.564v6.866a9.561,9.561,0,0,1-.05,1.155,2.793,2.793,0,0,1-.306.867,1.434,1.434,0,0,1-.867.7,5.437,5.437,0,0,1-1.665.2,5.608,5.608,0,0,1-1.682-.2,1.451,1.451,0,0,1-.884-.68,2.572,2.572,0,0,1-.306-.85,9.319,9.319,0,0,1-.051-1.155Zm6.73-16.009a3.028,3.028,0,0,0-.781,2.006,2.928,2.928,0,0,0,.8,1.988,2.6,2.6,0,0,0,2.04.9,2.841,2.841,0,0,0,2.107-.883,2.79,2.79,0,0,0,.867-2.005,2.934,2.934,0,0,0-.816-2.022,2.734,2.734,0,0,0-2.124-.9A2.608,2.608,0,0,0,2472.53,200.153Z" transform="translate(-2347.765 -184.854)"/>
  <path id="Tracciato_46" data-name="Tracciato 46" class="cls-3" d="M2867.634,187.591a9.337,9.337,0,0,1,13.018-.016,9.366,9.366,0,0,1,1.36,11.726,9.161,9.161,0,0,1-3.552,3.229,9.636,9.636,0,0,1-4.333,1.037,9.258,9.258,0,0,1-4.351-1.1,9.628,9.628,0,0,1-3.552-3.263,8.564,8.564,0,0,1-1.444-4.878,8.787,8.787,0,0,1,2.854-6.73Zm4.249,9.16a3.608,3.608,0,0,0,2.209.833,3.706,3.706,0,0,0,2.243-.85,3.414,3.414,0,0,0,.068-5,3.649,3.649,0,0,0-2.277-.816,3.558,3.558,0,0,0-2.277.85,3.02,3.02,0,0,0-1.054,2.5,2.927,2.927,0,0,0,1.088,2.481Z" transform="translate(-2727.474 -176.812)"/>
  <path id="Tracciato_47" data-name="Tracciato 47" class="cls-3" d="M997.044,195.293q.2-1.9,2.685-1.9a7.022,7.022,0,0,1,1.971.2,1.428,1.428,0,0,1,.9.714,2.935,2.935,0,0,1,.306.9,10.037,10.037,0,0,1,.05,1.172v11.9a10.035,10.035,0,0,1-.05,1.173,3.181,3.181,0,0,1-.289.9q-.476.885-2.328.884a4.588,4.588,0,0,1-2.481-.459,1.831,1.831,0,0,1-.731-1.342,4.755,4.755,0,0,1-4.2,1.8,7.417,7.417,0,0,1-5.456-2.685,8.841,8.841,0,0,1-2.515-6.237,8.752,8.752,0,0,1,2.532-6.22A7.56,7.56,0,0,1,993,193.425a5.3,5.3,0,0,1,2.106.408,4.683,4.683,0,0,1,1.326.765,4.84,4.84,0,0,1,.612.7Zm-6.187,7.07a2.818,2.818,0,0,0,.884,2.022,2.886,2.886,0,0,0,2.141.9,2.7,2.7,0,0,0,2.09-.918,2.944,2.944,0,0,0,.833-2.022,3.143,3.143,0,0,0-.8-2.056,2.654,2.654,0,0,0-2.141-.952,2.754,2.754,0,0,0-2.176.952,3.085,3.085,0,0,0-.833,2.073Z" transform="translate(-938.406 -184.854)"/>
  <path id="Tracciato_48" data-name="Tracciato 48" class="cls-2" d="M31.62,794.32h.8c.068.459.4.677.91.677.466,0,.782-.188.782-.534,0-.308-.218-.459-.955-.594-.94-.158-1.4-.459-1.4-1.151s.624-1.158,1.512-1.158c.933,0,1.512.444,1.587,1.211h-.79a.72.72,0,0,0-.8-.6c-.444,0-.707.188-.707.5s.218.444.925.556c.978.158,1.451.481,1.451,1.158,0,.737-.639,1.234-1.609,1.234s-1.624-.474-1.7-1.3Z" transform="translate(-31.162 -754.131)"/>
  <path id="Tracciato_49" data-name="Tracciato 49" class="cls-2" d="M182.82,796.8V791.65h.775l.023.639a1.428,1.428,0,0,1,1.3-.729c1.015,0,1.654.812,1.654,1.97v.113a1.749,1.749,0,0,1-1.677,1.978,1.4,1.4,0,0,1-1.241-.684V796.8h-.835Zm2.911-3.158v-.113c0-.835-.376-1.316-1.038-1.316s-1.068.481-1.068,1.316v.113c0,.835.376,1.308,1.068,1.308S185.731,794.478,185.731,793.643Z" transform="translate(-175.058 -754.131)"/>
  <path id="Tracciato_50" data-name="Tracciato 50" class="cls-2" d="M339.77,794.487a1.073,1.073,0,0,1,1.038-1.113l1.527-.226v-.278c0-.429-.293-.654-.782-.654s-.8.218-.842.609h-.79c.068-.8.7-1.256,1.647-1.256,1,0,1.565.526,1.565,1.331v2.633h-.76l-.03-.6a1.411,1.411,0,0,1-1.271.7,1.166,1.166,0,0,1-1.3-1.143Zm2.564-.376v-.354l-1.241.173c-.354.053-.519.218-.519.519,0,.324.248.526.684.526a.979.979,0,0,0,1.076-.865Z" transform="translate(-324.427 -754.141)"/>
  <path id="Tracciato_51" data-name="Tracciato 51" class="cls-2" d="M492.05,797.293v-.6l2.008-2.61h-1.88v-.662h2.85v.594l-1.985,2.61h2.068v.669H492.05Z" transform="translate(-469.352 -755.901)"/>
  <path id="Tracciato_52" data-name="Tracciato 52" class="cls-2" d="M638.805,759.518h-.865V758.39h.865Zm-.023.564v3.873h-.827v-3.873Z" transform="translate(-608.195 -722.563)"/>
  <path id="Tracciato_53" data-name="Tracciato 53" class="cls-2" d="M738.52,793.643v-.113a1.915,1.915,0,1,1,3.828,0v.113a1.915,1.915,0,1,1-3.828,0Zm2.986,0v-.113c0-.835-.369-1.3-1.075-1.3s-1.068.466-1.068,1.3v.113c0,.835.369,1.308,1.068,1.308S741.506,794.478,741.506,793.643Z" transform="translate(-703.917 -754.131)"/>
  <path id="Tracciato_54" data-name="Tracciato 54" class="cls-2" d="M995.43,794.487a1.073,1.073,0,0,1,1.038-1.113l1.527-.226v-.278c0-.429-.293-.654-.782-.654s-.8.218-.842.609h-.79c.068-.8.7-1.256,1.647-1.256,1,0,1.565.526,1.565,1.331v2.633h-.76l-.03-.6a1.411,1.411,0,0,1-1.271.7,1.166,1.166,0,0,1-1.3-1.143Zm2.564-.376v-.354l-1.241.173c-.354.053-.519.218-.519.519,0,.324.248.526.685.526a.978.978,0,0,0,1.075-.865Z" transform="translate(-948.417 -754.141)"/>
  <path id="Tracciato_55" data-name="Tracciato 55" class="cls-2" d="M1151.647,758.4v5.565h-.828V758.4Z" transform="translate(-1096.302 -722.573)"/>
  <path id="Tracciato_56" data-name="Tracciato 56" class="cls-2" d="M1255.187,758.4v5.565h-.827V758.4Z" transform="translate(-1194.84 -722.573)"/>
  <path id="Tracciato_57" data-name="Tracciato 57" class="cls-2" d="M1354.63,793.643v-.113a1.822,1.822,0,0,1,1.918-1.97c1.271,0,1.888.887,1.827,2.211h-2.9c.038.775.413,1.188,1.068,1.188a.914.914,0,0,0,.978-.647h.827a1.689,1.689,0,0,1-1.805,1.309A1.821,1.821,0,0,1,1354.63,793.643Zm2.9-.466a.93.93,0,0,0-.985-.963.977.977,0,0,0-1.045.963Z" transform="translate(-1290.267 -754.131)"/>
  <path id="Tracciato_58" data-name="Tracciato 58" class="cls-2" d="M1607.152,772.4v-2.2h-.752v-.624h.752V768.36h.827v1.211h1.053v.624h-1.053v2.113c0,.383.143.556.6.556a1.691,1.691,0,0,0,.474-.075v.662a2.466,2.466,0,0,1-.632.09c-.85,0-1.271-.391-1.271-1.143Z" transform="translate(-1529.876 -732.052)"/>
  <path id="Tracciato_59" data-name="Tracciato 59" class="cls-2" d="M1743.11,795.91v-2.49h.835v2.332c0,.594.218.948.775.948s.91-.436.91-1.128V793.42h.835v3.873h-.8l-.015-.586a1.377,1.377,0,0,1-1.2.684c-.9,0-1.339-.571-1.339-1.481Z" transform="translate(-1659.983 -755.901)"/>
  <path id="Tracciato_60" data-name="Tracciato 60" class="cls-2" d="M1895.7,793.643v-.113a1.822,1.822,0,0,1,1.918-1.97c1.271,0,1.888.887,1.827,2.211h-2.9c.038.775.414,1.188,1.068,1.188a.914.914,0,0,0,.978-.647h.827a1.689,1.689,0,0,1-1.8,1.309A1.821,1.821,0,0,1,1895.7,793.643Zm2.9-.466a.93.93,0,0,0-.985-.963.977.977,0,0,0-1.045.963Z" transform="translate(-1805.202 -754.131)"/>
  <path id="Tracciato_61" data-name="Tracciato 61" class="cls-2" d="M2154.32,796.8V791.65h.775l.023.639a1.428,1.428,0,0,1,1.3-.729c1.015,0,1.654.812,1.654,1.97v.113a1.749,1.749,0,0,1-1.677,1.978,1.4,1.4,0,0,1-1.241-.684V796.8h-.835Zm2.911-3.158v-.113c0-.835-.376-1.316-1.038-1.316s-1.068.481-1.068,1.316v.113c0,.835.376,1.308,1.068,1.308S2157.231,794.478,2157.231,793.643Z" transform="translate(-2051.331 -754.131)"/>
  <path id="Tracciato_62" data-name="Tracciato 62" class="cls-2" d="M2311.26,794.487a1.073,1.073,0,0,1,1.038-1.113l1.527-.226v-.278c0-.429-.293-.654-.782-.654s-.8.218-.843.609h-.79c.068-.8.7-1.256,1.647-1.256,1,0,1.564.526,1.564,1.331v2.633h-.76l-.03-.6a1.411,1.411,0,0,1-1.271.7,1.166,1.166,0,0,1-1.3-1.143Zm2.564-.376v-.354l-1.241.173c-.354.053-.519.218-.519.519,0,.324.248.526.684.526a.978.978,0,0,0,1.075-.865Z" transform="translate(-2200.69 -754.141)"/>
  <path id="Tracciato_63" data-name="Tracciato 63" class="cls-2" d="M2462.751,794.32h.8c.068.459.4.677.91.677.466,0,.782-.188.782-.534,0-.308-.218-.459-.955-.594-.94-.158-1.4-.459-1.4-1.151s.624-1.158,1.512-1.158c.933,0,1.512.444,1.587,1.211h-.79a.72.72,0,0,0-.8-.6c-.444,0-.707.188-.707.5s.219.444.925.556c.978.158,1.452.481,1.452,1.158,0,.737-.64,1.234-1.61,1.234s-1.624-.474-1.7-1.3Z" transform="translate(-2344.863 -754.131)"/>
  <path id="Tracciato_64" data-name="Tracciato 64" class="cls-2" d="M2606.621,794.32h.8c.068.459.4.677.91.677.466,0,.782-.188.782-.534,0-.308-.218-.459-.955-.594-.94-.158-1.4-.459-1.4-1.151s.624-1.158,1.512-1.158c.933,0,1.512.444,1.587,1.211h-.79a.721.721,0,0,0-.8-.6c-.444,0-.707.188-.707.5s.218.444.925.556c.978.158,1.451.481,1.451,1.158,0,.737-.639,1.234-1.61,1.234s-1.624-.474-1.7-1.3Z" transform="translate(-2481.783 -754.131)"/>
  <path id="Tracciato_65" data-name="Tracciato 65" class="cls-2" d="M2758.375,759.518h-.865V758.39h.865Zm-.022.564v3.873h-.828v-3.873Z" transform="translate(-2625.385 -722.563)"/>
  <path id="Tracciato_66" data-name="Tracciato 66" class="cls-2" d="M2858.09,793.643v-.113a1.915,1.915,0,1,1,3.828,0v.113a1.915,1.915,0,1,1-3.828,0Zm2.986,0v-.113c0-.835-.369-1.3-1.076-1.3s-1.068.466-1.068,1.3v.113c0,.835.368,1.308,1.068,1.308S2861.076,794.478,2861.076,793.643Z" transform="translate(-2721.106 -754.131)"/>
  <path id="Tracciato_67" data-name="Tracciato 67" class="cls-2" d="M3020.49,795.514V791.64h.8l.03.617a1.335,1.335,0,0,1,1.234-.707c.94,0,1.338.586,1.338,1.466v2.5h-.82v-2.294c0-.632-.233-.985-.8-.985s-.955.421-.955,1.113v2.166h-.827Z" transform="translate(-2875.663 -754.121)"/>
  <path id="Tracciato_68" data-name="Tracciato 68" class="cls-2" d="M3177.205,759.518h-.865V758.39h.865Zm-.023.564v3.873h-.827v-3.873Z" transform="translate(-3023.985 -722.563)"/>
  <circle id="Ellisse_2" data-name="Ellisse 2" class="cls-2" cx="3.108" cy="3.108" r="3.108"/>
</svg>
